<svg xmlns="http://www.w3.org/2000/svg" viewBox="0 0 32 32" fill="none">
  <defs>
    <!-- Premium Terracotta to Deep Red Gradient for outer flame -->
    <linearGradient id="outerGrad" x1="16" y1="2" x2="16" y2="30" gradientUnits="userSpaceOnUse">
      <stop offset="0%" stop-color="#ff7e40" />
      <stop offset="60%" stop-color="#e03e1a" />
      <stop offset="100%" stop-color="#a81c07" />
    </linearGradient>
    <!-- Warm Gold to Bright Yellow Gradient for inner flame -->
    <linearGradient id="innerGrad" x1="16" y1="10" x2="16" y2="28" gradientUnits="userSpaceOnUse">
      <stop offset="0%" stop-color="#fffbeb" />
      <stop offset="40%" stop-color="#fde047" />
      <stop offset="100%" stop-color="#ca8a04" />
    </linearGradient>
  </defs>
  
  <!-- Outer Flame Shape -->
  <path d="M16 2C16 2 7 11 7 19C7 24.5 11 29 16 29C21 29 25 24.5 25 19C25 11 16 2 16 2Z" fill="url(#outerGrad)" />
  
  <!-- Inner Flame Shape -->
  <path d="M16 10C16 10 11 15 11 21C11 24.3 13.2 27 16 27C18.8 27 21 24.3 21 21C21 15 16 10 16 10Z" fill="url(#innerGrad)" />
  
  <!-- Core White/Yellow Glow -->
  <path d="M16 16C16 16 13.5 19 13.5 22.5C13.5 24.2 14.6 25.5 16 25.5C17.4 25.5 18.5 24.2 18.5 22.5C18.5 19 16 16 16 16Z" fill="#ffffff" opacity="0.95" />
</svg>
